<svg width="32" height="32" viewBox="0 0 32 32" fill="none" xmlns="http://www.w3.org/2000/svg">
<path d="M0 32L2.2617 23.7871C0.863419 21.3764 0.129895 18.6464 0.137536 15.8555C0.137536 7.11027 7.28939 0 16.0688 0C20.3324 0 24.3362 1.65019 27.339 4.64639C30.3495 7.64259 32.0076 11.6274 32 15.8631C32 24.6084 24.8481 31.7186 16.0611 31.7186H16.0535C13.3868 31.7186 10.766 31.0494 8.43552 29.7871L0 32ZM8.84049 26.9202L9.32187 27.2091C11.3543 28.4107 13.6848 29.0418 16.0611 29.0494H16.0688C23.3658 29.0494 29.3104 23.1407 29.3104 15.8707C29.3104 12.3498 27.935 9.04183 25.4365 6.54753C22.9379 4.05323 19.6065 2.68441 16.0688 2.68441C8.77172 2.67681 2.82712 8.58555 2.82712 15.8555C2.82712 18.3422 3.52244 20.7681 4.85195 22.8669L5.16523 23.3688L3.82808 28.2281L8.84049 26.9202Z" fill="white"/>
<path d="M0 32L2.2617 23.7871C0.863419 21.3764 0.129895 18.6464 0.137536 15.8555C0.137536 7.11027 7.28939 0 16.0688 0C20.3324 0 24.3362 1.65019 27.339 4.64639C30.3495 7.64259 32.0076 11.6274 32 15.8631C32 24.6084 24.8481 31.7186 16.0611 31.7186H16.0535C13.3868 31.7186 10.766 31.0494 8.43552 29.7871L0 32ZM8.84049 26.9202L9.32187 27.2091C11.3543 28.4107 13.6848 29.0418 16.0611 29.0494H16.0688C23.3658 29.0494 29.3104 23.1407 29.3104 15.8707C29.3104 12.3498 27.935 9.04183 25.4365 6.54753C22.9379 4.05323 19.6065 2.68441 16.0688 2.68441C8.77172 2.67681 2.82712 8.58555 2.82712 15.8555C2.82712 18.3422 3.52244 20.7681 4.85195 22.8669L5.16523 23.3688L3.82808 28.2281L8.84049 26.9202Z" fill="white"/>
<path fill-rule="evenodd" clip-rule="evenodd" d="M12.0878 9.22424C11.7898 8.56265 11.4766 8.54744 11.1939 8.53983C10.9646 8.53223 10.6972 8.53223 10.4298 8.53223C10.1623 8.53223 9.73445 8.63109 9.36769 9.02652C9.00093 9.42196 7.97705 10.3801 7.97705 12.3345C7.97705 14.2813 9.40589 16.1672 9.60456 16.4334C9.80322 16.6995 12.3629 20.8288 16.4049 22.4182C19.7669 23.7414 20.4546 23.4752 21.1805 23.4068C21.9064 23.3383 23.5339 22.4486 23.8701 21.5208C24.1986 20.5931 24.1986 19.8022 24.0993 19.6349C24 19.4676 23.7325 19.3687 23.3352 19.171C22.9379 18.9733 20.9818 18.0151 20.6151 17.8782C20.2483 17.749 19.9809 17.6805 19.7211 18.076C19.4536 18.4714 18.6896 19.3611 18.4603 19.6273C18.2311 19.8934 17.9942 19.9239 17.5969 19.7261C17.1996 19.5284 15.9159 19.1102 14.3954 17.7566C13.211 16.7071 12.4088 15.4068 12.1795 15.0113C11.9503 14.6159 12.1566 14.403 12.3553 14.2052C12.531 14.0303 12.7526 13.7414 12.9513 13.5132C13.1499 13.2851 13.2187 13.1178 13.3486 12.8516C13.4785 12.5855 13.4174 12.3573 13.318 12.1596C13.2187 11.9695 12.4393 10.0075 12.0878 9.22424Z" fill="white"/>
</svg>
