<svg width="300" height="113" viewBox="0 0 300 113" fill="none" xmlns="http://www.w3.org/2000/svg">
<path fill-rule="evenodd" clip-rule="evenodd" d="M199.89 51.6961C200.025 56.8698 199.44 62.0087 198.226 67.0256C195.731 78.7033 189.232 89.0159 180.38 96.9044C170.021 106.398 156.347 113.704 141.977 112.834C139.772 112.693 136.999 112.637 132.494 110.82C128.875 108.923 125.751 106.204 123.289 102.93C121.306 100.529 119.59 97.9112 118.347 95.0494C117.704 93.5662 117.243 91.8623 117.677 90.259C118.425 87.494 121.542 86.9693 123.777 88.3266C124.582 88.8339 125.265 89.4942 125.908 90.1912C126.357 90.6269 126.789 91.1846 127.24 91.7287C126.774 90.5766 125.959 89.4535 125.273 88.5667C123.287 86.0805 121.075 83.7822 118.862 81.4993C115.421 77.9288 112.453 73.8994 110.079 69.5466C104.677 59.112 104.257 46.6172 106.929 35.3306C108.375 28.9603 110.892 22.6364 115.47 17.8576C117.646 15.5728 120.611 13.4197 123.931 13.9657C126.278 14.2658 128.391 15.9504 128.997 18.27C130.015 22.2336 127.852 26.0907 125.963 29.4366C124.466 32.0273 123.012 34.6471 121.736 37.356C118.746 43.6082 116.521 50.4084 116.651 57.4042C116.742 60.0163 116.926 62.6806 117.625 65.2074C118.934 62.8684 121.699 62.0881 123.86 64.8202C125.715 66.8959 125.968 69.8254 127.24 72.2051C130.923 66.7216 136.304 63.3079 143.046 63.4493C145.554 63.5693 148.315 63.9973 150.383 65.4998C151.913 64.1347 153.194 62.7793 154.37 61.149C156.794 57.3674 158.424 52.9372 158.314 48.4044C158.041 42.826 155.779 37.5109 152.885 32.8018C151.053 29.9245 148.935 27.2234 146.545 24.7876C146.028 24.1118 144.843 23.407 144.748 22.5182C144.485 21.765 144.628 20.8259 145.163 20.2528C147.622 17.6582 152.763 20.4774 155.526 21.4881C156.18 21.7612 156.835 22.0342 157.495 22.2936C157.731 22.373 157.977 22.5453 158.221 22.4059C159.929 21.4359 161.335 20.0127 162.872 18.8045C165.321 16.7481 167.633 14.9474 170.156 13.0769C170.297 11.9752 170.119 10.858 170.106 9.75235C170.05 8.09877 169.513 2.52034 170.181 1.55994C172.962 -1.86921 183.84 9.58389 185.811 11.9287C190.758 17.8557 194.067 25.0006 196.445 32.3003C197.868 36.6938 199.053 41.1859 199.592 45.7826C199.597 46.0944 199.665 46.4758 199.719 46.8689C199.754 46.9754 199.774 47.0916 199.77 47.2155C199.772 47.2775 199.774 47.3375 199.777 47.3994C199.783 47.4904 199.787 47.5795 199.789 47.6667C199.849 49.0085 199.872 50.3523 199.89 51.6961ZM117.071 76.2868C119.807 79.7005 123.07 82.6456 125.883 85.9934C125.817 85.8637 125.753 85.7339 125.686 85.6061C123.933 82.2796 121.404 79.4584 119.404 76.2907C118.024 74.033 116.835 71.4326 116.825 68.7528C116.748 68.6792 116.672 68.592 116.604 68.4875C114.717 64.4232 114.498 59.7471 114.581 55.3285C114.92 47.4304 117.911 39.9351 121.559 33.0129C123.112 29.9865 125.064 27.1595 126.354 24.0014C127.184 21.8386 127.798 18.9632 125.974 17.1392C124.777 16.0356 122.983 15.7335 121.447 16.2098C119.716 16.7113 118.351 17.9796 117.085 19.2053C116.419 19.8985 115.799 20.6265 115.222 21.3836C115.687 22.4311 116.542 24.7198 117.296 28.6775C118.394 34.4515 115.367 39.7415 113.119 42.5181C111.061 45.0604 108 50.4104 107.5 51.2875C107.763 56.3567 108.793 61.3697 110.73 66.0826C112.366 69.75 114.589 73.1404 117.071 76.2868ZM194.259 73.2081C196.497 66.6848 197.868 59.7897 197.8 52.8888C197.787 51.3688 197.768 49.8488 197.713 48.3269C197.717 48.2727 197.717 48.2146 197.715 48.1585C197.582 47.6473 197.675 47.0316 197.562 46.5262C197.44 45.4322 197.282 44.344 197.103 43.2577C196.168 38.0046 194.544 32.8986 192.658 27.9166C191 23.7826 188.917 19.7745 186.347 16.1266C179.398 20.5103 170.336 15.5709 170.332 15.5689C170.212 15.6561 170.096 15.7432 169.984 15.8323C169.031 16.5429 168.113 17.2516 167.221 17.9602C165.439 19.3931 163.687 20.8627 161.921 22.3149C160.556 23.3392 159.011 25.0799 157.139 24.4042C156.701 24.2957 156.271 24.0905 155.857 23.9162C155.266 23.6703 154.681 23.4167 154.093 23.1669C152.648 22.5531 151.183 21.9393 149.657 21.552C148.845 21.3468 147.6 21.0118 146.851 21.5733C146.522 21.8212 147.163 22.4253 147.339 22.6189C147.606 22.9132 147.906 23.1785 148.187 23.4631C148.665 23.9511 149.142 24.441 149.591 24.958C156.405 32.7708 162.502 43.8386 159.671 54.4572C158.521 58.5931 156.467 62.5567 153.365 65.5637C152.745 66.0884 151.847 67.2793 151.03 67.5716C150.758 67.8137 150.369 67.926 149.963 67.7614C149.833 67.6646 149.701 67.5697 149.568 67.4768C149.508 67.409 149.453 67.3335 149.409 67.2521C149.423 67.2792 149.436 67.3064 149.451 67.3335C149.482 67.378 149.517 67.4245 149.556 67.469C148.348 66.6325 146.991 66.0497 145.525 65.8116C141.389 65.0312 136.993 66.0071 133.568 68.4507C131.638 69.7964 130.244 71.7172 128.848 73.5722C128.226 74.3099 127.082 74.6236 126.234 74.0872C125.151 73.3882 124.845 72.0406 124.423 70.904C123.713 68.9987 122.988 65.8329 120.818 65.1765C118.717 65.5889 118.746 68.8844 119.149 70.5264C119.677 72.8499 121.023 75.0379 122.359 76.9316C124.942 80.4711 127.674 83.9971 129.126 88.1853C129.765 89.9976 130.224 91.8855 130.408 93.8024C130.495 93.8024 130.584 93.8024 130.677 93.7947C132.362 93.3106 133.682 92.0017 135.08 90.9948C139.569 87.5947 144.595 84.2295 150.329 83.6389C155.799 83.1006 161.414 85.0833 165.416 88.832C165.91 89.3277 166.551 90.048 166.603 90.7334C166.665 91.3356 166.136 91.8894 165.53 91.8565C164.725 91.8352 164.663 91.1633 164.254 90.6676C163.091 89.3664 161.565 88.4505 160.051 87.616C156.248 85.5965 151.663 85.1047 147.525 86.3052C143.794 87.5502 140.374 89.6297 137.239 91.9804C134.711 93.754 131.857 97.0651 128.482 95.4967C126.377 94.4956 125.225 92.3212 123.554 90.7954C121.867 89.0973 119.158 89.2676 119.66 92.2108C120.349 95.2566 122.158 97.9538 124.003 100.428C125.385 102.233 126.816 104.012 128.505 105.544C130.166 107.074 132.108 108.257 134.118 109.271C136.825 106.069 145.354 96.5984 153.75 93.9341C162.132 91.2736 176.095 93.0027 180.724 93.6882C186.675 87.9626 191.477 80.9959 194.259 73.2081ZM166.545 49.3454C172.089 49.3144 176.149 53.4968 177.007 58.8042C177.255 60.2699 177.274 61.7647 177.26 63.2479C177.224 66.0381 176.976 68.8631 176.006 71.5003C174.823 75.1812 171.788 78.7691 167.552 78.0391C166.067 77.799 164.742 76.9471 163.757 75.8318C161.89 73.7425 161.608 70.8072 161.728 68.1235C161.811 65.645 162.086 63.153 161.772 60.6804C161.613 59.3095 163.623 59.0133 163.852 60.3745C164.181 62.9613 163.925 65.5618 163.828 68.1525C163.788 69.9455 163.79 71.8334 164.653 73.456C164.93 73.9749 165.265 74.4125 165.639 74.7746C165.674 74.0156 165.666 73.2546 165.65 72.4936C165.662 71.8101 165.534 71.1266 165.571 70.4489C165.784 69.2039 167.627 69.3298 167.658 70.6019C167.79 72.3678 167.804 74.1414 167.68 75.9073C168.235 76.0351 168.81 76.0448 169.378 75.9402C169.37 75.8821 169.366 75.826 169.368 75.766C169.442 74.153 169.275 72.5421 169.056 70.9446C168.874 69.6493 170.714 69.2349 171.107 70.4838C171.196 71.237 171.523 73.3766 171.508 74.9082C171.752 74.7049 171.988 74.4706 172.209 74.2073C174.251 71.5623 174.952 68.1312 175.109 64.855C175.194 62.3243 175.305 59.6968 174.443 57.2726C173.357 54.0177 170.47 51.5683 166.979 51.4598C166.105 51.3398 164.835 51.9303 164.479 50.7744C164.2 49.4693 165.567 49.3009 166.545 49.3454ZM173.09 31.6149C174.28 30.9972 176.825 28.9874 177.419 31.2334C177.574 32.5637 177.965 35.2745 176.019 35.3403C175.677 35.3132 175.375 35.1273 175.063 34.9976C174.515 34.7691 173.953 34.5832 173.434 34.2908C172.228 33.7099 171.661 32.3352 173.09 31.6149ZM195.283 57.5959C196.397 58.2872 195.477 59.3366 195.099 60.175C194.491 61.484 194.151 62.8897 193.893 64.3032C193.248 67.9279 192.917 71.7676 190.882 74.9411C189.701 76.8987 187.527 78.5871 185.131 78.2715C180.225 77.346 179.148 71.5158 179.203 67.285C179.183 62.8684 179.677 58.3704 181.193 54.2035C182.63 50.2051 187.281 45.0469 191.825 45.3354C193.184 45.7672 192.613 47.5543 191.434 47.3975C189.546 47.5059 187.889 48.6813 186.539 49.9282C183.791 52.3951 182.539 55.9927 181.942 59.5457C181.278 63.6661 180.482 70.9078 182.926 74.457C182.905 72.9835 182.893 71.5081 182.889 70.0346C182.874 68.7353 184.762 68.5591 184.98 69.8506C185.005 70.3231 184.99 70.7878 184.996 71.2602C185.015 72.7512 185.005 74.2441 185.056 75.735C185.064 75.8589 185.046 75.9751 185.009 76.0816C185.623 76.2481 186.247 76.1919 186.845 75.9422C186.835 75.8841 186.828 75.826 186.824 75.764C186.76 73.7426 186.731 71.7211 186.609 69.7054C186.539 68.6947 187.84 68.137 188.485 68.9445C188.665 69.1671 188.743 69.4672 188.71 69.7441C188.723 70.2456 188.779 70.7452 188.795 71.2467C188.837 72.2206 188.857 73.1965 188.88 74.1705C188.921 74.1124 188.959 74.0543 188.998 73.9943C190.146 72.2226 190.735 70.1682 191.118 68.1099C191.666 65.2462 191.874 62.2604 193.07 59.5651C193.525 58.6977 193.982 56.9686 195.283 57.5959ZM174.776 40.3882C176.122 40.2178 177.431 39.7918 178.622 39.1431C179.487 38.6533 180.264 38.0007 180.899 37.234C181.52 36.566 181.946 35.0944 183.114 35.683C183.604 35.9444 183.836 36.6124 183.546 37.1062C182.639 38.6552 181.35 39.9912 179.793 40.8936C178.482 41.6429 177.04 42.1425 175.553 42.4019C174.526 42.5781 172.681 42.8163 172.896 41.2285C173.165 40.241 173.994 40.4637 174.776 40.3882ZM146.557 21.6682C146.553 21.6663 146.549 21.6643 146.549 21.6643C146.512 21.6431 146.473 21.6217 146.437 21.6024L146.427 21.5985C146.435 21.6043 146.439 21.6063 146.444 21.6121C146.501 21.6392 146.551 21.6682 146.601 21.7011C146.586 21.6915 146.57 21.6798 146.557 21.6682Z" fill="#B7EBE4"/>
<path d="M12.126 64.7745C13.1607 64.7745 13.9955 64.3992 14.6291 63.6471C15.2641 62.895 15.7922 61.8846 16.216 60.6145C16.6384 59.3458 16.9795 57.8774 17.2378 56.2091C17.4961 54.5394 17.743 52.7655 17.9784 50.886C18.0726 50.0398 18.1668 49.0408 18.261 47.8891C18.3538 46.7375 18.4609 45.2562 18.5779 43.4466C18.6949 41.6371 18.8361 39.3808 19.0002 36.6793C19.1658 33.9764 19.3656 30.6513 19.5997 26.7025C19.6468 26.0446 19.7181 25.598 19.8108 25.3625C19.905 25.1285 20.2104 25.01 20.7284 25.01H24.6059C26.2043 25.01 27.4615 25.1513 28.3777 25.4339C29.2939 25.715 29.9874 26.0675 30.457 26.4913C30.9279 26.9138 31.2091 27.3718 31.3032 27.8656C31.3974 28.3594 31.4445 28.8418 31.4445 29.3113C31.4445 29.7808 31.4217 30.8625 31.3746 32.555C31.3275 34.2461 31.2562 36.2084 31.162 38.4418C31.0692 40.6738 30.9393 43.0128 30.7752 45.4559C30.6097 47.9006 30.4341 50.1097 30.2457 52.0834C29.9646 54.7634 29.5293 57.5006 28.9414 60.2977C28.3548 63.0948 27.403 65.6436 26.0858 67.9469C24.77 70.2502 23.019 72.1311 20.8341 73.5882C18.6478 75.0453 15.8164 75.7731 12.3386 75.7731C10.4106 75.7731 8.68382 75.5376 7.1554 75.0681C5.62842 74.5986 4.3355 73.9521 3.27802 73.1287C2.22055 72.3067 1.4099 71.3434 0.846203 70.2388C0.282502 69.1342 0 67.9712 0 66.7481C0 65.6207 0.222618 64.5989 0.669297 63.6813C1.11598 62.7651 1.71537 62.0016 2.46745 61.3908C3.21952 60.7801 4.07718 60.3091 5.04046 59.9809C6.00518 59.6512 7.00268 59.4871 8.03732 59.4871C8.31988 59.4871 8.51974 59.7568 8.63676 60.2977C8.75378 60.8386 8.91934 61.4494 9.13055 62.1301C9.34175 62.8122 9.65856 63.423 10.0824 63.9639C10.5048 64.5048 11.187 64.7745 12.126 64.7745Z" fill="#B7EBE4"/>
<path d="M48.3655 75.7733C45.1217 75.7733 42.4317 75.3152 40.2925 74.399C38.1547 73.4814 36.4507 72.2241 35.1806 70.6272C33.9119 69.0289 33.0185 67.1608 32.5019 65.0216C31.9853 62.8824 31.7271 60.5919 31.7271 58.1473C31.7271 55.3274 32.0667 52.566 32.7489 49.8631C33.431 47.1601 34.5941 44.7512 36.2395 42.6363C37.8835 40.5213 40.0584 38.8174 42.7599 37.5258C45.4628 36.2329 48.835 35.5864 52.8779 35.5864C58.8004 35.5864 63.0417 37.0321 65.6033 39.9219C68.1649 42.8132 69.4465 46.8676 69.4465 52.0836C69.4465 53.5407 69.3409 55.1504 69.1283 56.9143C68.9171 58.6768 68.5174 60.4264 67.9295 62.166C67.3429 63.9056 66.5437 65.5967 65.5334 67.2422C64.523 68.8876 63.2415 70.3447 61.6902 71.6134C60.139 72.882 58.2709 73.8939 56.086 74.6459C53.8997 75.398 51.3267 75.7733 48.3655 75.7733ZM51.6792 44.9639C49.8925 44.9639 48.4711 45.4219 47.4136 46.3381C46.3562 47.2543 45.557 48.3589 45.0161 49.6518C44.4767 50.9448 44.1242 52.3077 43.9586 53.7405C43.7945 55.1747 43.7118 56.3849 43.7118 57.3724C43.7118 60.4735 44.2055 62.754 45.193 64.211C46.1792 65.6681 47.5905 66.3959 49.4229 66.3959C51.0684 66.3959 52.4198 65.8793 53.4773 64.8447C54.5348 63.8114 55.3568 62.5656 55.9447 61.1085C56.5327 59.6515 56.9323 58.1245 57.1435 56.5261C57.3548 54.9278 57.4603 53.5878 57.4603 52.5075C57.4603 50.157 57.0251 48.3118 56.156 46.9732C55.2869 45.6332 53.7942 44.9639 51.6792 44.9639Z" fill="#B7EBE4"/>
<path d="M83.97 42.7774C83.97 43.8591 83.8988 45.1392 83.7589 46.6205C83.6176 48.1004 83.4649 49.5818 83.2993 51.0617C83.1352 52.543 82.9826 53.9287 82.8413 55.2216C82.7014 56.5146 82.63 57.5121 82.63 58.2185C82.63 60.0038 83.0653 61.3324 83.9344 62.2015C84.8035 63.0706 85.8738 63.5059 87.1425 63.5059C89.3516 63.5059 91.1141 62.3542 92.4299 60.0509C93.7457 57.7476 94.5691 54.6922 94.8973 50.8861L96.0261 37.7012C96.0732 37.1846 96.2487 36.8193 96.5541 36.6081C96.8595 36.3969 97.2007 36.2913 97.5774 36.2913H100.115C101.102 36.2913 102.03 36.374 102.9 36.5382C103.77 36.7023 104.533 37.0077 105.191 37.4543C105.849 37.901 106.367 38.5004 106.742 39.2525C107.119 40.0045 107.306 40.9678 107.306 42.1423C107.306 42.6133 107.272 43.4938 107.2 44.7867C107.13 46.0797 107.013 47.9363 106.848 50.3567C106.684 52.777 106.461 55.8324 106.178 59.5215C105.896 63.2119 105.568 67.713 105.191 73.0232C104.957 76.1257 104.263 78.6987 103.112 80.7437C101.96 82.7888 100.514 84.4099 98.7761 85.6087C97.0365 86.8074 95.0857 87.6409 92.9237 88.1118C90.7616 88.5813 88.5524 88.8168 86.2962 88.8168C83.8987 88.8168 81.7025 88.6056 79.7045 88.1817C77.7066 87.7593 75.9798 87.1714 74.5227 86.4193C73.0656 85.6672 71.9254 84.7981 71.1034 83.8106C70.28 82.823 69.869 81.7655 69.869 80.6381C69.869 79.7448 70.0687 78.9699 70.4683 78.312C70.8679 77.6527 71.3974 77.1132 72.0553 76.6894C72.7131 76.2669 73.4767 75.9501 74.3458 75.7375C75.2163 75.5263 76.1211 75.4207 77.0601 75.4207C77.531 75.4207 77.8706 75.6561 78.0833 76.1257C78.2945 76.5952 78.6228 77.1246 79.0695 77.7126C79.5161 78.2991 80.2325 78.8286 81.22 79.2981C82.2076 79.769 83.6875 80.0031 85.6626 80.0031C87.4008 80.0031 88.8108 79.5807 89.8925 78.7344C90.9728 77.8881 91.8076 76.8078 92.3956 75.4906C92.9821 74.1748 93.3703 72.742 93.5587 71.1908C93.7456 69.6395 93.8398 68.1582 93.8398 66.7482C93.0877 68.0654 92.2543 69.1343 91.3381 69.9563C90.4205 70.7798 89.4687 71.4134 88.4826 71.8601C87.495 72.3068 86.5075 72.6008 85.5213 72.742C84.5338 72.8819 83.5933 72.9532 82.7014 72.9532C80.9618 72.9532 79.3748 72.7178 77.942 72.2483C76.5078 71.7773 75.2748 71.0138 74.2401 69.9563C73.2069 68.8989 72.4078 67.5246 71.8426 65.832C71.2789 64.1395 70.9978 62.0959 70.9978 59.6984C70.9978 58.8051 71.0434 57.6191 71.1376 56.1378C71.2318 54.6579 71.3503 52.9882 71.4901 51.1316C71.6314 49.2749 71.7841 47.2656 71.9497 45.1036C72.1138 42.9415 72.2893 40.7324 72.4777 38.4761C72.5719 37.0191 73.2298 36.2913 74.4514 36.2913H76.7076C78.2117 36.2913 79.4348 36.4325 80.3738 36.7137C81.3143 36.9962 82.0549 37.4072 82.5943 37.9481C83.1352 38.489 83.4991 39.1697 83.6875 39.9931C83.8759 40.8151 83.97 41.7442 83.97 42.7774Z" fill="#B7EBE4"/>
<path d="M219.768 71.6487C221.694 71.6487 223.327 71.3661 224.667 70.8024C226.007 70.2387 227.146 69.6036 228.086 68.8987C229.027 68.1937 229.861 67.56 230.589 66.9949C231.318 66.4312 232.058 66.1501 232.81 66.1501C233.75 66.1501 234.22 66.8551 234.22 68.265C234.22 69.0171 234.126 69.9219 233.939 70.9794C233.75 72.0368 233.492 73.2227 233.162 74.54C232.975 75.3391 232.516 76.2082 231.788 77.1487C231.059 78.0877 230.06 78.9696 228.791 79.7916C227.522 80.6151 225.96 81.2958 224.103 81.8367C222.246 82.3775 220.12 82.6473 217.723 82.6473C215.325 82.6473 212.928 82.2948 210.531 81.5898C208.134 80.8848 205.995 79.686 204.115 77.9935C202.234 76.3024 200.707 74.0219 199.533 71.1549C198.357 68.2879 197.77 64.693 197.77 60.3675C197.77 58.8177 197.876 57.0196 198.087 54.9745C198.298 52.9295 198.71 50.8274 199.32 48.6639C199.933 46.5019 200.79 44.3755 201.895 42.2834C202.999 40.1927 204.421 38.3247 206.16 36.6792C207.898 35.0338 210.026 33.7066 212.541 32.6962C215.055 31.6844 218.051 31.1792 221.53 31.1792C224.303 31.1792 226.712 31.5089 228.757 32.1667C230.8 32.8246 232.493 33.7294 233.833 34.8811C235.172 36.0327 236.159 37.3842 236.794 38.9354C237.428 40.4867 237.745 42.1307 237.745 43.8703C237.745 46.8786 236.864 49.0764 235.102 50.4621C233.339 51.8492 230.836 52.5428 227.592 52.5428C226.559 52.5428 225.913 52.46 225.654 52.2959C225.396 52.1303 225.266 51.7907 225.266 51.2726C225.219 49.6757 225.172 48.2886 225.125 47.1141C225.078 45.9382 224.914 44.9635 224.631 44.1871C224.35 43.4122 223.915 42.8485 223.327 42.496C222.74 42.1435 221.93 41.9666 220.895 41.9666C219.391 41.9666 218.111 42.2834 217.053 42.9185C215.994 43.5535 215.102 44.3755 214.373 45.3859C213.645 46.3963 213.057 47.5365 212.611 48.8052C212.164 50.0753 211.812 51.3668 211.553 52.6826C211.295 53.9998 211.131 55.2685 211.059 56.4901C210.99 57.7131 210.954 58.7706 210.954 59.6625C210.954 63.988 211.67 67.0663 213.105 68.8987C214.537 70.7325 216.759 71.6487 219.768 71.6487Z" fill="#B7EBE4"/>
<path d="M236.476 73.2697C236.476 69.0398 238.38 65.7261 242.187 63.3286C245.995 60.9325 251.612 59.6395 259.037 59.4512C259.084 58.9346 259.12 58.4993 259.144 58.1468C259.167 57.7943 259.178 57.3605 259.178 56.8424C259.178 55.3383 258.897 54.1395 258.332 53.2476C257.768 52.3542 256.594 51.9076 254.807 51.9076C253.821 51.9076 253.022 52.0488 252.409 52.33C251.799 52.6125 251.305 53.0007 250.93 53.4945C250.553 53.9868 250.247 54.5862 250.013 55.2912C249.778 55.9962 249.567 56.7725 249.378 57.6188C249.284 58.0412 249.073 58.3123 248.743 58.4294C248.415 58.5464 247.898 58.6049 247.193 58.6049C242.398 58.6049 240.001 56.7953 240.001 53.1762C240.001 51.7192 240.342 50.3335 241.024 49.0163C241.705 47.7005 242.715 46.5617 244.055 45.597C245.395 44.6337 247.075 43.8702 249.096 43.3065C251.118 42.7428 253.468 42.4602 256.147 42.4602C261.364 42.4602 265.148 43.5405 267.498 45.7026C269.848 47.866 271.023 50.92 271.023 54.8688C271.023 55.3854 270.964 56.3144 270.847 57.653C270.729 58.9931 270.588 60.403 270.424 61.8843C270.259 63.3642 270.118 64.7628 270.001 66.0786C269.883 67.3944 269.824 68.312 269.824 68.8286C269.824 70.0031 270.035 70.8379 270.459 71.3317C270.882 71.8255 271.364 72.1651 271.905 72.3535C272.444 72.5419 272.927 72.6832 273.349 72.7773C273.773 72.8701 273.984 73.1056 273.984 73.4823C273.984 74.5155 273.843 75.573 273.562 76.6547C273.279 77.735 272.821 78.7226 272.186 79.616C271.552 80.5079 270.682 81.2371 269.577 81.8008C268.473 82.3645 267.121 82.6471 265.524 82.6471C263.268 82.6471 261.576 82.1062 260.447 81.0259C259.319 79.9442 258.567 78.44 258.192 76.5135C257.063 78.1589 255.595 79.5917 253.785 80.8147C251.976 82.0363 249.614 82.6471 246.7 82.6471C245.29 82.6471 243.961 82.483 242.715 82.1533C241.471 81.8251 240.389 81.2842 239.473 80.5322C238.557 79.7801 237.827 78.8054 237.287 77.6066C236.747 76.4079 236.476 74.9622 236.476 73.2697ZM258.403 65.2323C257.18 65.2323 255.983 65.3265 254.807 65.5149C253.632 65.7033 252.586 65.9972 251.67 66.3954C250.753 66.795 250.013 67.3244 249.45 67.9823C248.884 68.6402 248.603 69.4394 248.603 70.3798C248.603 71.4601 248.943 72.2122 249.625 72.6361C250.307 73.0585 251.047 73.2697 251.846 73.2697C252.598 73.2697 253.35 73.1056 254.102 72.7773C254.854 72.4477 255.523 71.9425 256.111 71.2603C256.699 70.5796 257.204 69.7448 257.627 68.7587C258.051 67.7711 258.309 66.5952 258.403 65.2323Z" fill="#B7EBE4"/>
<path d="M290.623 52.6823C290.481 54.469 290.329 56.2315 290.165 57.9711C290 59.7093 289.848 61.3548 289.706 62.906C289.565 64.4573 289.46 65.843 289.39 67.066C289.318 68.2876 289.284 69.228 289.284 69.8859C289.284 71.1075 289.424 71.9181 289.706 72.3177C289.989 72.7173 290.459 72.9171 291.116 72.9171C291.633 72.9171 292.08 72.8229 292.456 72.6359C292.832 72.4475 293.184 72.2363 293.514 72.0009C293.842 71.7654 294.136 71.5542 294.394 71.3658C294.654 71.1789 294.947 71.0847 295.276 71.0847C295.605 71.0847 295.911 71.273 296.193 71.6484C296.475 72.0251 296.616 72.8942 296.616 74.2571C296.616 76.8416 295.911 78.8866 294.5 80.3907C293.09 81.8949 290.67 82.647 287.239 82.647C283.855 82.647 281.352 81.8592 279.73 80.2851C278.108 78.7111 277.298 76.3021 277.298 73.0583C277.298 72.3534 277.334 71.5185 277.403 70.5552C277.473 69.5919 277.58 68.3347 277.72 66.7834C277.862 65.2322 278.039 63.3284 278.25 61.0736C278.461 58.8174 278.685 56.0203 278.919 52.6823H275.183C274.806 52.6823 274.584 52.601 274.514 52.4369C274.442 52.2713 274.407 52.0244 274.407 51.6962L274.619 48.0999C274.666 47.4891 274.748 46.8898 274.866 46.3018C274.983 45.7153 275.219 45.1858 275.571 44.7163C275.924 44.2454 276.429 43.87 277.087 43.5875C277.745 43.3063 278.614 43.1651 279.695 43.1651C280.024 42.3188 280.4 41.3084 280.823 40.1339C281.247 38.958 281.669 37.8192 282.092 36.7146C282.515 35.61 282.926 34.681 283.326 33.9289C283.726 33.1768 284.089 32.8015 284.419 32.8015H286.463C288.438 32.8015 289.801 33.4123 290.553 34.6339C291.305 35.8555 291.68 37.3126 291.68 39.0051C291.68 39.9455 291.61 41.3312 291.469 43.1651H298.873C299.623 43.1651 300 43.4947 300 44.1526L299.717 47.9587C299.623 49.3686 299.237 50.5089 298.554 51.378C297.874 52.2485 296.475 52.6823 294.36 52.6823H290.623Z" fill="#B7EBE4"/>
</svg>
