<svg width="25" height="25" viewBox="0 0 25 25" fill="none" xmlns="http://www.w3.org/2000/svg">
<path d="M0.5 24.5571L2.19627 18.3974C1.14756 16.5895 0.597421 14.5419 0.603152 12.4488C0.603152 5.88983 5.96704 0.557129 12.5516 0.557129C15.7493 0.557129 18.7521 1.79477 21.0043 4.04192C23.2622 6.28907 24.5057 9.27766 24.5 12.4545C24.5 19.0134 19.1361 24.3461 12.5458 24.3461H12.5401C10.5401 24.3461 8.57449 23.8442 6.82664 22.8974L0.5 24.5571ZM7.13037 20.7472L7.4914 20.964C9.01575 21.8651 10.7636 22.3385 12.5458 22.3442H12.5516C18.0243 22.3442 22.4828 17.9126 22.4828 12.4602C22.4828 9.81949 21.4513 7.3385 19.5773 5.46778C17.7034 3.59705 15.2049 2.57044 12.5516 2.57044C7.07879 2.56473 2.62034 6.99629 2.62034 12.4488C2.62034 14.3138 3.14183 16.1332 4.13897 17.7073L4.37392 18.0837L3.37106 21.7282L7.13037 20.7472Z" fill="#95BB6F"/>
<path d="M0.5 24.5571L2.19627 18.3974C1.14756 16.5895 0.597421 14.5419 0.603152 12.4488C0.603152 5.88983 5.96704 0.557129 12.5516 0.557129C15.7493 0.557129 18.7521 1.79477 21.0043 4.04192C23.2622 6.28907 24.5057 9.27766 24.5 12.4545C24.5 19.0134 19.1361 24.3461 12.5458 24.3461H12.5401C10.5401 24.3461 8.57449 23.8442 6.82664 22.8974L0.5 24.5571ZM7.13037 20.7472L7.4914 20.964C9.01575 21.8651 10.7636 22.3385 12.5458 22.3442H12.5516C18.0243 22.3442 22.4828 17.9126 22.4828 12.4602C22.4828 9.81949 21.4513 7.3385 19.5773 5.46778C17.7034 3.59705 15.2049 2.57044 12.5516 2.57044C7.07879 2.56473 2.62034 6.99629 2.62034 12.4488C2.62034 14.3138 3.14183 16.1332 4.13897 17.7073L4.37392 18.0837L3.37106 21.7282L7.13037 20.7472Z" fill="#95BB6F"/>
<path fill-rule="evenodd" clip-rule="evenodd" d="M9.56576 7.47555C9.34226 6.97936 9.10731 6.96795 8.89527 6.96225C8.72335 6.95654 8.52278 6.95654 8.32221 6.95654C8.12163 6.95654 7.80072 7.03069 7.52565 7.32727C7.25057 7.62384 6.48267 8.34247 6.48267 9.80825C6.48267 11.2683 7.5543 12.6828 7.7033 12.8824C7.85229 13.082 9.77206 16.179 12.8036 17.371C15.3251 18.3634 15.8408 18.1638 16.3852 18.1124C16.9297 18.0611 18.1503 17.3938 18.4024 16.698C18.6488 16.0022 18.6488 15.409 18.5743 15.2835C18.4998 15.1581 18.2993 15.0839 18.0013 14.9356C17.7033 14.7873 16.2362 14.0687 15.9612 13.9661C15.6861 13.8691 15.4855 13.8178 15.2907 14.1143C15.0901 14.4109 14.517 15.0782 14.3451 15.2778C14.1732 15.4775 13.9956 15.5003 13.6976 15.352C13.3996 15.2037 12.4368 14.89 11.2964 13.8748C10.4082 13.0877 9.80645 12.1124 9.63453 11.8159C9.46261 11.5193 9.61733 11.3596 9.76633 11.2113C9.89814 11.0801 10.0643 10.8634 10.2133 10.6923C10.3623 10.5212 10.4139 10.3957 10.5113 10.1961C10.6087 9.99647 10.5629 9.82536 10.4884 9.67708C10.4139 9.53449 9.82937 8.06301 9.56576 7.47555Z" fill="#95BB6F"/>
</svg>
